G04 (Genere par PCBnew (20080825c)) le 16/3/2011-02:53:24*
G01*
G70*
G90*
%MOIN*%
G04 Gerber Fmt 3.4, Leading zero omitted, Abs format*
%FSLAX34Y34*%
G04 APERTURE LIST*
%ADD10C,0.015000*%
%ADD11C,0.002600*%
%ADD12C,0.046000*%
%ADD13R,0.055000X0.055000*%
%ADD14C,0.055000*%
%ADD15C,0.100000*%
%ADD16C,0.059100*%
%ADD17C,0.118100*%
%ADD18C,0.143700*%
%ADD19R,0.059100X0.059100*%
%ADD20C,0.025000*%
%ADD21R,0.025000X0.045000*%
%ADD22R,0.035000X0.055000*%
%ADD23R,0.078700X0.019600*%
%ADD24R,0.013700X0.039300*%
%ADD25R,0.039300X0.013700*%
%ADD26R,0.039000X0.012000*%
%ADD27R,0.042000X0.085000*%
%ADD28R,0.425100X0.409800*%
%ADD29R,0.047200X0.013700*%
%ADD30R,0.023600X0.086600*%
%ADD31R,0.012000X0.039000*%
%ADD32R,0.016500X0.046000*%
%ADD33R,0.110000X0.082000*%
%ADD34C,0.006000*%
%ADD35C,0.001000*%
%ADD36C,0.007000*%
%ADD37C,0.005000*%
%ADD38C,0.012000*%
%ADD39C,0.010000*%
%ADD40C,0.024000*%
%ADD41C,0.003900*%
%ADD42C,0.008000*%
%ADD43C,0.002000*%
%ADD44C,0.003000*%
%ADD45C,0.000100*%
%ADD46C,0.003500*%
G04 APERTURE END LIST*
G54D10*
X179000Y-56000D02*
X99000Y-56000D01*
X179000Y-136000D02*
X179000Y-56000D01*
X99000Y-136000D02*
X179000Y-136000D01*
X99000Y-136000D02*
X99000Y-56000D01*
G54D12*
X129814Y-70717D03*
X129814Y-71504D03*
X129814Y-72291D03*
X129814Y-73079D03*
X129814Y-73865D03*
X129814Y-74653D03*
X129814Y-75440D03*
X129814Y-76227D03*
X129814Y-77015D03*
X138474Y-77015D03*
X138474Y-76227D03*
X138474Y-75440D03*
X138474Y-74653D03*
X138474Y-73865D03*
X138474Y-73079D03*
X138474Y-72291D03*
X138474Y-71504D03*
X138474Y-70717D03*
X138474Y-69929D03*
X129814Y-69930D03*
G54D13*
X46280Y-52730D03*
G54D14*
X47280Y-52730D03*
G54D13*
X43080Y-43070D03*
G54D14*
X44080Y-43070D03*
G54D13*
X42890Y-40640D03*
G54D14*
X43890Y-40640D03*
G54D13*
X49240Y-25020D03*
G54D14*
X50240Y-25020D03*
X51240Y-25020D03*
G54D13*
X49360Y-22590D03*
G54D14*
X50360Y-22590D03*
X51360Y-22590D03*
G54D13*
X49300Y-19650D03*
G54D14*
X50300Y-19650D03*
X51300Y-19650D03*
G54D13*
X55380Y-27580D03*
G54D14*
X56380Y-27580D03*
X57380Y-27580D03*
G54D13*
X55320Y-24640D03*
G54D14*
X56320Y-24640D03*
X57320Y-24640D03*
G54D13*
X55440Y-21890D03*
G54D14*
X56440Y-21890D03*
X57440Y-21890D03*
G54D13*
X55250Y-19260D03*
G54D14*
X56250Y-19260D03*
X57250Y-19260D03*
G54D13*
X61650Y-28350D03*
G54D14*
X62650Y-28350D03*
X63650Y-28350D03*
G54D13*
X61650Y-25980D03*
G54D14*
X62650Y-25980D03*
X63650Y-25980D03*
G54D13*
X61720Y-23610D03*
G54D14*
X62720Y-23610D03*
X63720Y-23610D03*
G54D13*
X61780Y-21630D03*
G54D14*
X62780Y-21630D03*
X63780Y-21630D03*
G54D13*
X61840Y-19200D03*
G54D14*
X62840Y-19200D03*
X63840Y-19200D03*
G54D13*
X106000Y-113000D03*
G54D14*
X107000Y-113000D03*
X108000Y-113000D03*
G54D13*
X106000Y-112000D03*
G54D14*
X107000Y-112000D03*
X108000Y-112000D03*
G54D13*
X105000Y-105000D03*
G54D14*
X106000Y-105000D03*
X107000Y-105000D03*
G54D13*
X105000Y-104000D03*
G54D14*
X106000Y-104000D03*
X107000Y-104000D03*
G54D13*
X105000Y-103000D03*
G54D14*
X106000Y-103000D03*
X107000Y-103000D03*
G54D13*
X105000Y-102000D03*
G54D14*
X106000Y-102000D03*
X107000Y-102000D03*
G54D13*
X105000Y-101000D03*
G54D14*
X106000Y-101000D03*
X107000Y-101000D03*
G54D13*
X105000Y-100000D03*
G54D14*
X106000Y-100000D03*
X107000Y-100000D03*
G54D13*
X105000Y-99000D03*
G54D14*
X106000Y-99000D03*
X107000Y-99000D03*
G54D13*
X105000Y-98000D03*
G54D14*
X106000Y-98000D03*
X107000Y-98000D03*
G54D13*
X105000Y-97000D03*
G54D14*
X106000Y-97000D03*
X107000Y-97000D03*
G54D13*
X105000Y-96000D03*
G54D14*
X106000Y-96000D03*
X107000Y-96000D03*
G54D13*
X105000Y-95000D03*
G54D14*
X106000Y-95000D03*
X107000Y-95000D03*
G54D13*
X105000Y-94000D03*
G54D14*
X106000Y-94000D03*
X107000Y-94000D03*
G54D13*
X105000Y-93000D03*
G54D14*
X106000Y-93000D03*
X107000Y-93000D03*
G54D13*
X105000Y-92000D03*
G54D14*
X106000Y-92000D03*
X107000Y-92000D03*
G54D13*
X105000Y-91000D03*
G54D14*
X106000Y-91000D03*
X107000Y-91000D03*
G54D13*
X105000Y-90000D03*
G54D14*
X106000Y-90000D03*
X107000Y-90000D03*
G54D13*
X59520Y-31130D03*
G54D14*
X60520Y-31130D03*
X61520Y-31130D03*
X62520Y-31130D03*
G54D13*
X54370Y-40890D03*
G54D14*
X55370Y-40890D03*
X56370Y-40890D03*
X57370Y-40890D03*
G54D13*
X63280Y-36610D03*
G54D14*
X64280Y-36610D03*
X65280Y-36610D03*
X66280Y-36610D03*
G54D13*
X63070Y-38780D03*
G54D14*
X64070Y-38780D03*
X65070Y-38780D03*
X66070Y-38780D03*
G54D13*
X64000Y-56500D03*
G54D14*
X65000Y-56500D03*
X66000Y-56500D03*
X67000Y-56500D03*
G54D13*
X68120Y-32700D03*
G54D14*
X69120Y-32700D03*
X70120Y-32700D03*
X71120Y-32700D03*
X72120Y-32700D03*
G54D13*
X61410Y-41870D03*
G54D14*
X62410Y-41870D03*
X63410Y-41870D03*
X64410Y-41870D03*
X65410Y-41870D03*
X66410Y-41870D03*
X67410Y-41870D03*
G54D21*
X58230Y-38460D03*
X58830Y-38460D03*
X58160Y-37380D03*
X58760Y-37380D03*
X58160Y-36450D03*
X58760Y-36450D03*
X58420Y-35170D03*
X59020Y-35170D03*
X58290Y-34240D03*
X58890Y-34240D03*
X58260Y-33220D03*
X58860Y-33220D03*
X56340Y-38460D03*
X56940Y-38460D03*
X56400Y-37470D03*
X57000Y-37470D03*
X56370Y-36420D03*
X56970Y-36420D03*
X56400Y-35330D03*
X57000Y-35330D03*
X56440Y-34240D03*
X57040Y-34240D03*
X56470Y-33280D03*
X57070Y-33280D03*
X54770Y-34270D03*
X55370Y-34270D03*
X53300Y-34370D03*
X53900Y-34370D03*
X54480Y-33210D03*
X55080Y-33210D03*
X52980Y-33210D03*
X53580Y-33210D03*
X51600Y-37730D03*
X52200Y-37730D03*
X51550Y-36880D03*
X52150Y-36880D03*
X51600Y-36050D03*
X52200Y-36050D03*
X51550Y-35250D03*
X52150Y-35250D03*
X51550Y-34330D03*
X52150Y-34330D03*
X51360Y-33070D03*
X51960Y-33070D03*
X49630Y-37600D03*
X50230Y-37600D03*
X49760Y-36530D03*
X50360Y-36530D03*
X49820Y-35650D03*
X50420Y-35650D03*
X50130Y-34370D03*
X50730Y-34370D03*
X49680Y-33150D03*
X50280Y-33150D03*
X40850Y-27450D03*
X41450Y-27450D03*
X40720Y-28670D03*
X41320Y-28670D03*
X40660Y-30460D03*
X41260Y-30460D03*
X40660Y-32380D03*
X41260Y-32380D03*
X40530Y-34430D03*
X41130Y-34430D03*
X44240Y-19130D03*
X44840Y-19130D03*
X44300Y-21050D03*
X44900Y-21050D03*
X44050Y-24320D03*
X44650Y-24320D03*
X44180Y-25470D03*
X44780Y-25470D03*
X43920Y-27200D03*
X44520Y-27200D03*
X44050Y-28800D03*
X44650Y-28800D03*
X43980Y-30400D03*
X44580Y-30400D03*
X43540Y-34490D03*
X44140Y-34490D03*
X43860Y-32380D03*
X44460Y-32380D03*
G54D22*
X43975Y-22850D03*
X44725Y-22850D03*
G54D13*
X63770Y-46190D03*
G54D14*
X64770Y-46190D03*
G54D15*
X-76830Y-17300D03*
X-68830Y-17300D03*
X-66320Y-25360D03*
X-58320Y-25360D03*
X-66460Y-17580D03*
X-58460Y-17580D03*
X-66320Y-13840D03*
X-58320Y-13840D03*
X-66320Y-10100D03*
X-58320Y-10100D03*
X-66180Y-06060D03*
X-58180Y-06060D03*
X-66320Y-01890D03*
X-58320Y-01890D03*
X-66030Y02580D03*
X-58030Y02580D03*
X-66030Y06320D03*
X-58030Y06320D03*
X-53070Y-28100D03*
X-45070Y-28100D03*
X-53360Y-20320D03*
X-45360Y-20320D03*
X-53360Y-16720D03*
X-45360Y-16720D03*
X-53360Y-12980D03*
X-45360Y-12980D03*
X-53650Y-09230D03*
X-45650Y-09230D03*
X-53650Y-05060D03*
X-45650Y-05060D03*
X-53790Y-01310D03*
X-45790Y-01310D03*
X-53650Y02430D03*
X-45650Y02430D03*
X-53500Y06180D03*
X-45500Y06180D03*
X-42850Y-29680D03*
X-34850Y-29680D03*
X-42560Y-25790D03*
X-34560Y-25790D03*
X-42420Y-21760D03*
X-34420Y-21760D03*
X-42420Y-13700D03*
X-34420Y-13700D03*
X-42420Y-09660D03*
X-34420Y-09660D03*
X-42270Y-05780D03*
X-34270Y-05780D03*
X-42130Y-01890D03*
X-34130Y-01890D03*
X-42270Y02000D03*
X-34270Y02000D03*
X-42420Y05890D03*
X-34420Y05890D03*
X-31330Y-29540D03*
X-23330Y-29540D03*
X-31470Y-25650D03*
X-23470Y-25650D03*
X-31470Y-21760D03*
X-23470Y-21760D03*
X-31760Y-17870D03*
X-23760Y-17870D03*
X-31860Y-13780D03*
X-23860Y-13780D03*
X-31930Y-10040D03*
X-23930Y-10040D03*
X-32000Y-06150D03*
X-24000Y-06150D03*
X-32360Y-02260D03*
X-24360Y-02260D03*
X-32580Y01770D03*
X-24580Y01770D03*
X-32140Y06380D03*
X-24140Y06380D03*
X-17100Y06520D03*
X-09100Y06520D03*
X-30420Y11420D03*
X-22420Y11420D03*
X-08020Y12860D03*
X-00020Y12860D03*
X05370Y10550D03*
X13370Y10550D03*
X-00180Y-04670D03*
X07820Y-04670D03*
X-13370Y-00940D03*
X-05370Y-00940D03*
X-10060Y-05190D03*
X-02060Y-05190D03*
G54D23*
X133386Y-84993D03*
X133386Y-85308D03*
X133386Y-85623D03*
X133386Y-85938D03*
X133386Y-86252D03*
X133386Y-86567D03*
X133386Y-86882D03*
X133386Y-87197D03*
X133386Y-87512D03*
X133386Y-87827D03*
X133386Y-88142D03*
X133386Y-88457D03*
X133386Y-88772D03*
X133386Y-89087D03*
X133386Y-89402D03*
X133386Y-89717D03*
X133386Y-90032D03*
X133386Y-90347D03*
X133386Y-90662D03*
X133386Y-90977D03*
X133386Y-91292D03*
X133386Y-91607D03*
X133386Y-91922D03*
X133386Y-92237D03*
X133386Y-92552D03*
X133386Y-92867D03*
X133386Y-93182D03*
X133386Y-93497D03*
X133386Y-93812D03*
X133386Y-94126D03*
X133386Y-95938D03*
X133386Y-96252D03*
X133386Y-96567D03*
X133386Y-96882D03*
X133386Y-97196D03*
X133386Y-97511D03*
X133386Y-97826D03*
X133386Y-98141D03*
X133386Y-98456D03*
X133386Y-98771D03*
X133386Y-99086D03*
X133386Y-99401D03*
X133386Y-99716D03*
X133386Y-100031D03*
X133386Y-100346D03*
X133386Y-100661D03*
X133386Y-100976D03*
X133386Y-101291D03*
X133386Y-101606D03*
X133386Y-101921D03*
X133386Y-102236D03*
X133386Y-102551D03*
X133386Y-102866D03*
X133386Y-103181D03*
X133386Y-103496D03*
X133386Y-103811D03*
X133386Y-104125D03*
X133386Y-104440D03*
X133386Y-104755D03*
X133386Y-105070D03*
X133386Y-105385D03*
X133386Y-105700D03*
X133386Y-106015D03*
X133386Y-106330D03*
X133386Y-106645D03*
X133386Y-106960D03*
X133386Y-107275D03*
X133386Y-107590D03*
X133386Y-107905D03*
X133386Y-108220D03*
X133386Y-108535D03*
X133386Y-108850D03*
X136614Y-85150D03*
X136614Y-85465D03*
X136614Y-85780D03*
X136614Y-86095D03*
X136614Y-86410D03*
X136614Y-86725D03*
X136614Y-87040D03*
X136614Y-87355D03*
X136614Y-87670D03*
X136614Y-87985D03*
X136614Y-88300D03*
X136614Y-88615D03*
X136614Y-88930D03*
X136614Y-89245D03*
X136614Y-89560D03*
X136614Y-89875D03*
X136614Y-90189D03*
X136614Y-90504D03*
X136614Y-90819D03*
X136614Y-91134D03*
X136614Y-91449D03*
X136614Y-91764D03*
X136614Y-92079D03*
X136614Y-92394D03*
X136614Y-92709D03*
X136614Y-93024D03*
X136614Y-93339D03*
X136614Y-93654D03*
X136614Y-93969D03*
X136614Y-94284D03*
X136614Y-96095D03*
X136614Y-96410D03*
X136614Y-96725D03*
X136614Y-97039D03*
X136614Y-97354D03*
X136614Y-97669D03*
X136614Y-97984D03*
X136614Y-98299D03*
X136614Y-98614D03*
X136614Y-98929D03*
X136614Y-99244D03*
X136614Y-99559D03*
X136614Y-99874D03*
X136614Y-100188D03*
X136614Y-100503D03*
X136614Y-100818D03*
X136614Y-101133D03*
X136614Y-101448D03*
X136614Y-101763D03*
X136614Y-102078D03*
X136614Y-102393D03*
X136614Y-102708D03*
X136614Y-103023D03*
X136614Y-103338D03*
X136614Y-103653D03*
X136614Y-103968D03*
X136614Y-104283D03*
X136614Y-104598D03*
X136614Y-104913D03*
X136614Y-105228D03*
X136614Y-105543D03*
X136614Y-105858D03*
X136614Y-106173D03*
X136614Y-106488D03*
X136614Y-106803D03*
X136614Y-107118D03*
X136614Y-107433D03*
X136614Y-107748D03*
X136614Y-108062D03*
X136614Y-108377D03*
X136614Y-108692D03*
X136614Y-109007D03*
G54D24*
X114650Y-98027D03*
X114965Y-98027D03*
X115280Y-98027D03*
X115595Y-98027D03*
X115910Y-98027D03*
X116224Y-98027D03*
X116538Y-98027D03*
X116853Y-98027D03*
X117168Y-98027D03*
X117483Y-98027D03*
X117798Y-98027D03*
G54D25*
X118507Y-97318D03*
X118507Y-97003D03*
X118507Y-96688D03*
X118507Y-96373D03*
X118507Y-96058D03*
X118507Y-95744D03*
X118507Y-95430D03*
X118507Y-95115D03*
X118507Y-94800D03*
X118507Y-94485D03*
X118507Y-94170D03*
G54D24*
X117798Y-93461D03*
X117483Y-93461D03*
X117168Y-93461D03*
X116853Y-93461D03*
X116538Y-93461D03*
X116224Y-93461D03*
X115910Y-93461D03*
X115595Y-93461D03*
X115280Y-93461D03*
X114965Y-93461D03*
X114650Y-93461D03*
G54D25*
X113941Y-94170D03*
X113941Y-94485D03*
X113941Y-94800D03*
X113941Y-95115D03*
X113941Y-95430D03*
X113941Y-95744D03*
X113941Y-96058D03*
X113941Y-96373D03*
X113941Y-96688D03*
X113941Y-97003D03*
X113941Y-97318D03*
G54D26*
X99852Y-92349D03*
X99852Y-92605D03*
X99852Y-92861D03*
X99852Y-93117D03*
X99852Y-93373D03*
X99852Y-93627D03*
X99852Y-93883D03*
X99852Y-94139D03*
X99852Y-94395D03*
X99852Y-94651D03*
X102148Y-94651D03*
X102148Y-94395D03*
X102148Y-94139D03*
X102148Y-93883D03*
X102148Y-93627D03*
X102148Y-93373D03*
X102148Y-93117D03*
X102148Y-92861D03*
X102148Y-92605D03*
X102148Y-92349D03*
X99852Y-100349D03*
X99852Y-100605D03*
X99852Y-100861D03*
X99852Y-101117D03*
X99852Y-101373D03*
X99852Y-101627D03*
X99852Y-101883D03*
X99852Y-102139D03*
X99852Y-102395D03*
X99852Y-102651D03*
X102148Y-102651D03*
X102148Y-102395D03*
X102148Y-102139D03*
X102148Y-101883D03*
X102148Y-101627D03*
X102148Y-101373D03*
X102148Y-101117D03*
X102148Y-100861D03*
X102148Y-100605D03*
X102148Y-100349D03*
G54D16*
X110100Y-61000D03*
X111100Y-61000D03*
X111900Y-61000D03*
X112900Y-61000D03*
G54D17*
X108900Y-59950D03*
X114300Y-59950D03*
G54D18*
X116662Y-59000D03*
X121335Y-59000D03*
G54D19*
X120750Y-61500D03*
G54D16*
X120250Y-62500D03*
X119750Y-61500D03*
X119250Y-62500D03*
X118750Y-61500D03*
X118250Y-62500D03*
X117750Y-61500D03*
X117250Y-62500D03*
G54D27*
X111000Y-78280D03*
X112000Y-78280D03*
X113000Y-78280D03*
G54D28*
X112000Y-75000D03*
G54D29*
X122651Y-100883D03*
X122651Y-100627D03*
X122651Y-100373D03*
X122651Y-100117D03*
X120349Y-100117D03*
X120349Y-100373D03*
X120349Y-100627D03*
X120349Y-100883D03*
G54D30*
X121750Y-120023D03*
X122250Y-120023D03*
X122750Y-120023D03*
X123250Y-120023D03*
X123750Y-120023D03*
X124250Y-120023D03*
X124750Y-120023D03*
X125250Y-120023D03*
X125250Y-117977D03*
X124750Y-117977D03*
X124250Y-117977D03*
X123750Y-117977D03*
X123250Y-117977D03*
X122750Y-117977D03*
X122250Y-117977D03*
X121750Y-117977D03*
G54D31*
X116349Y-121148D03*
X116605Y-121148D03*
X116861Y-121148D03*
X117117Y-121148D03*
X117373Y-121148D03*
X117627Y-121148D03*
X117883Y-121148D03*
X118139Y-121148D03*
X118395Y-121148D03*
X118651Y-121148D03*
X118651Y-118852D03*
X118395Y-118852D03*
X118139Y-118852D03*
X117883Y-118852D03*
X117627Y-118852D03*
X117373Y-118852D03*
X117117Y-118852D03*
X116861Y-118852D03*
X116605Y-118852D03*
X116349Y-118852D03*
G54D30*
X126750Y-120023D03*
X127250Y-120023D03*
X127750Y-120023D03*
X128250Y-120023D03*
X128750Y-120023D03*
X129250Y-120023D03*
X129750Y-120023D03*
X130250Y-120023D03*
X130250Y-117977D03*
X129750Y-117977D03*
X129250Y-117977D03*
X128750Y-117977D03*
X128250Y-117977D03*
X127750Y-117977D03*
X127250Y-117977D03*
X126750Y-117977D03*
X116750Y-76811D03*
X117250Y-76811D03*
X117750Y-76811D03*
X118250Y-76811D03*
X118250Y-74189D03*
X117750Y-74189D03*
X117250Y-74189D03*
X116750Y-74189D03*
G54D20*
X137218Y-108377D03*
X137226Y-108062D03*
G54D34*
X136614Y-108377D02*
X137218Y-108377D01*
X136614Y-108062D02*
X137226Y-108062D01*
M02*
