G04 (Genere par PCBnew (20080825c)) le 18/3/2011-04:12:10*
G01*
G70*
G90*
%MOIN*%
G04 Gerber Fmt 3.4, Leading zero omitted, Abs format*
%FSLAX34Y34*%
G04 APERTURE LIST*
%ADD10C,0.015000*%
%ADD11C,0.002600*%
%ADD12C,0.046000*%
%ADD13R,0.055000X0.055000*%
%ADD14C,0.055000*%
%ADD15C,0.100000*%
%ADD16C,0.025000*%
%ADD17R,0.025000X0.045000*%
%ADD18R,0.035000X0.055000*%
%ADD19R,0.078700X0.019600*%
%ADD20R,0.013700X0.039300*%
%ADD21R,0.039300X0.013700*%
%ADD22C,0.006000*%
%ADD23C,0.001000*%
%ADD24C,0.015000*%
%ADD25C,0.007000*%
%ADD26C,0.005000*%
%ADD27C,0.010000*%
%ADD28C,0.024000*%
%ADD29C,0.003900*%
%ADD30C,0.008000*%
%ADD31C,0.003500*%
%ADD32C,0.010700*%
%ADD33C,0.010600*%
%ADD34C,0.004500*%
G04 APERTURE END LIST*
G54D10*
X30408Y42864D02*
X-49592Y42864D01*
X30408Y-37136D02*
X30408Y42864D01*
X-49592Y-37136D02*
X30408Y-37136D01*
X-49592Y-37136D02*
X-49592Y42864D01*
G54D23*
X161549Y-88638D02*
X161542Y-88695D01*
X161542Y-88695D02*
X161525Y-88749D01*
X161525Y-88749D02*
X161496Y-88799D01*
X161496Y-88799D02*
X161458Y-88842D01*
X161458Y-88842D02*
X161411Y-88876D01*
X161411Y-88876D02*
X161358Y-88899D01*
X161358Y-88899D02*
X161302Y-88911D01*
X161302Y-88911D02*
X161246Y-88911D01*
X161246Y-88911D02*
X161190Y-88899D01*
X161190Y-88899D02*
X161137Y-88876D01*
X161137Y-88876D02*
X161090Y-88842D01*
X161090Y-88842D02*
X161052Y-88799D01*
X161052Y-88799D02*
X161023Y-88749D01*
X161023Y-88749D02*
X161006Y-88695D01*
X161006Y-88695D02*
X160999Y-88638D01*
X160999Y-88638D02*
X161006Y-88581D01*
X161006Y-88581D02*
X161023Y-88527D01*
X161023Y-88527D02*
X161052Y-88477D01*
X161052Y-88477D02*
X161090Y-88434D01*
X161090Y-88434D02*
X161137Y-88400D01*
X161137Y-88400D02*
X161190Y-88377D01*
X161190Y-88377D02*
X161246Y-88365D01*
X161246Y-88365D02*
X161302Y-88365D01*
X161302Y-88365D02*
X161358Y-88377D01*
X161358Y-88377D02*
X161411Y-88400D01*
X161411Y-88400D02*
X161458Y-88434D01*
X161458Y-88434D02*
X161496Y-88477D01*
X161496Y-88477D02*
X161525Y-88527D01*
X161525Y-88527D02*
X161542Y-88581D01*
X161542Y-88581D02*
X161549Y-88638D01*
X162549Y-88638D02*
X162542Y-88695D01*
X162542Y-88695D02*
X162525Y-88749D01*
X162525Y-88749D02*
X162496Y-88799D01*
X162496Y-88799D02*
X162458Y-88842D01*
X162458Y-88842D02*
X162411Y-88876D01*
X162411Y-88876D02*
X162358Y-88899D01*
X162358Y-88899D02*
X162302Y-88911D01*
X162302Y-88911D02*
X162246Y-88911D01*
X162246Y-88911D02*
X162190Y-88899D01*
X162190Y-88899D02*
X162137Y-88876D01*
X162137Y-88876D02*
X162090Y-88842D01*
X162090Y-88842D02*
X162052Y-88799D01*
X162052Y-88799D02*
X162023Y-88749D01*
X162023Y-88749D02*
X162006Y-88695D01*
X162006Y-88695D02*
X161999Y-88638D01*
X161999Y-88638D02*
X162006Y-88581D01*
X162006Y-88581D02*
X162023Y-88527D01*
X162023Y-88527D02*
X162052Y-88477D01*
X162052Y-88477D02*
X162090Y-88434D01*
X162090Y-88434D02*
X162137Y-88400D01*
X162137Y-88400D02*
X162190Y-88377D01*
X162190Y-88377D02*
X162246Y-88365D01*
X162246Y-88365D02*
X162302Y-88365D01*
X162302Y-88365D02*
X162358Y-88377D01*
X162358Y-88377D02*
X162411Y-88400D01*
X162411Y-88400D02*
X162458Y-88434D01*
X162458Y-88434D02*
X162496Y-88477D01*
X162496Y-88477D02*
X162525Y-88527D01*
X162525Y-88527D02*
X162542Y-88581D01*
X162542Y-88581D02*
X162549Y-88638D01*
X163549Y-88638D02*
X163542Y-88695D01*
X163542Y-88695D02*
X163525Y-88749D01*
X163525Y-88749D02*
X163496Y-88799D01*
X163496Y-88799D02*
X163458Y-88842D01*
X163458Y-88842D02*
X163411Y-88876D01*
X163411Y-88876D02*
X163358Y-88899D01*
X163358Y-88899D02*
X163302Y-88911D01*
X163302Y-88911D02*
X163246Y-88911D01*
X163246Y-88911D02*
X163190Y-88899D01*
X163190Y-88899D02*
X163137Y-88876D01*
X163137Y-88876D02*
X163090Y-88842D01*
X163090Y-88842D02*
X163052Y-88799D01*
X163052Y-88799D02*
X163023Y-88749D01*
X163023Y-88749D02*
X163006Y-88695D01*
X163006Y-88695D02*
X162999Y-88638D01*
X162999Y-88638D02*
X163006Y-88581D01*
X163006Y-88581D02*
X163023Y-88527D01*
X163023Y-88527D02*
X163052Y-88477D01*
X163052Y-88477D02*
X163090Y-88434D01*
X163090Y-88434D02*
X163137Y-88400D01*
X163137Y-88400D02*
X163190Y-88377D01*
X163190Y-88377D02*
X163246Y-88365D01*
X163246Y-88365D02*
X163302Y-88365D01*
X163302Y-88365D02*
X163358Y-88377D01*
X163358Y-88377D02*
X163411Y-88400D01*
X163411Y-88400D02*
X163458Y-88434D01*
X163458Y-88434D02*
X163496Y-88477D01*
X163496Y-88477D02*
X163525Y-88527D01*
X163525Y-88527D02*
X163542Y-88581D01*
X163542Y-88581D02*
X163549Y-88638D01*
X164549Y-88638D02*
X164542Y-88695D01*
X164542Y-88695D02*
X164525Y-88749D01*
X164525Y-88749D02*
X164496Y-88799D01*
X164496Y-88799D02*
X164458Y-88842D01*
X164458Y-88842D02*
X164411Y-88876D01*
X164411Y-88876D02*
X164358Y-88899D01*
X164358Y-88899D02*
X164302Y-88911D01*
X164302Y-88911D02*
X164246Y-88911D01*
X164246Y-88911D02*
X164190Y-88899D01*
X164190Y-88899D02*
X164137Y-88876D01*
X164137Y-88876D02*
X164090Y-88842D01*
X164090Y-88842D02*
X164052Y-88799D01*
X164052Y-88799D02*
X164023Y-88749D01*
X164023Y-88749D02*
X164006Y-88695D01*
X164006Y-88695D02*
X163999Y-88638D01*
X163999Y-88638D02*
X164006Y-88581D01*
X164006Y-88581D02*
X164023Y-88527D01*
X164023Y-88527D02*
X164052Y-88477D01*
X164052Y-88477D02*
X164090Y-88434D01*
X164090Y-88434D02*
X164137Y-88400D01*
X164137Y-88400D02*
X164190Y-88377D01*
X164190Y-88377D02*
X164246Y-88365D01*
X164246Y-88365D02*
X164302Y-88365D01*
X164302Y-88365D02*
X164358Y-88377D01*
X164358Y-88377D02*
X164411Y-88400D01*
X164411Y-88400D02*
X164458Y-88434D01*
X164458Y-88434D02*
X164496Y-88477D01*
X164496Y-88477D02*
X164525Y-88527D01*
X164525Y-88527D02*
X164542Y-88581D01*
X164542Y-88581D02*
X164549Y-88638D01*
X165549Y-88638D02*
X165542Y-88695D01*
X165542Y-88695D02*
X165525Y-88749D01*
X165525Y-88749D02*
X165496Y-88799D01*
X165496Y-88799D02*
X165458Y-88842D01*
X165458Y-88842D02*
X165411Y-88876D01*
X165411Y-88876D02*
X165358Y-88899D01*
X165358Y-88899D02*
X165302Y-88911D01*
X165302Y-88911D02*
X165246Y-88911D01*
X165246Y-88911D02*
X165190Y-88899D01*
X165190Y-88899D02*
X165137Y-88876D01*
X165137Y-88876D02*
X165090Y-88842D01*
X165090Y-88842D02*
X165052Y-88799D01*
X165052Y-88799D02*
X165023Y-88749D01*
X165023Y-88749D02*
X165006Y-88695D01*
X165006Y-88695D02*
X164999Y-88638D01*
X164999Y-88638D02*
X165006Y-88581D01*
X165006Y-88581D02*
X165023Y-88527D01*
X165023Y-88527D02*
X165052Y-88477D01*
X165052Y-88477D02*
X165090Y-88434D01*
X165090Y-88434D02*
X165137Y-88400D01*
X165137Y-88400D02*
X165190Y-88377D01*
X165190Y-88377D02*
X165246Y-88365D01*
X165246Y-88365D02*
X165302Y-88365D01*
X165302Y-88365D02*
X165358Y-88377D01*
X165358Y-88377D02*
X165411Y-88400D01*
X165411Y-88400D02*
X165458Y-88434D01*
X165458Y-88434D02*
X165496Y-88477D01*
X165496Y-88477D02*
X165525Y-88527D01*
X165525Y-88527D02*
X165542Y-88581D01*
X165542Y-88581D02*
X165549Y-88638D01*
X166549Y-88638D02*
X166542Y-88695D01*
X166542Y-88695D02*
X166525Y-88749D01*
X166525Y-88749D02*
X166496Y-88799D01*
X166496Y-88799D02*
X166458Y-88842D01*
X166458Y-88842D02*
X166411Y-88876D01*
X166411Y-88876D02*
X166358Y-88899D01*
X166358Y-88899D02*
X166302Y-88911D01*
X166302Y-88911D02*
X166246Y-88911D01*
X166246Y-88911D02*
X166190Y-88899D01*
X166190Y-88899D02*
X166137Y-88876D01*
X166137Y-88876D02*
X166090Y-88842D01*
X166090Y-88842D02*
X166052Y-88799D01*
X166052Y-88799D02*
X166023Y-88749D01*
X166023Y-88749D02*
X166006Y-88695D01*
X166006Y-88695D02*
X165999Y-88638D01*
X165999Y-88638D02*
X166006Y-88581D01*
X166006Y-88581D02*
X166023Y-88527D01*
X166023Y-88527D02*
X166052Y-88477D01*
X166052Y-88477D02*
X166090Y-88434D01*
X166090Y-88434D02*
X166137Y-88400D01*
X166137Y-88400D02*
X166190Y-88377D01*
X166190Y-88377D02*
X166246Y-88365D01*
X166246Y-88365D02*
X166302Y-88365D01*
X166302Y-88365D02*
X166358Y-88377D01*
X166358Y-88377D02*
X166411Y-88400D01*
X166411Y-88400D02*
X166458Y-88434D01*
X166458Y-88434D02*
X166496Y-88477D01*
X166496Y-88477D02*
X166525Y-88527D01*
X166525Y-88527D02*
X166542Y-88581D01*
X166542Y-88581D02*
X166549Y-88638D01*
M02*
