G04 (Genere par PCBnew (20080825c)) le 18/3/2011-04:12:10*
G01*
G70*
G90*
%MOIN*%
G04 Gerber Fmt 3.4, Leading zero omitted, Abs format*
%FSLAX34Y34*%
G04 APERTURE LIST*
%ADD10C,0.015000*%
%ADD11C,0.002600*%
%ADD12C,0.046000*%
%ADD13R,0.055000X0.055000*%
%ADD14C,0.055000*%
%ADD15C,0.100000*%
%ADD16C,0.025000*%
%ADD17R,0.025000X0.045000*%
%ADD18R,0.035000X0.055000*%
%ADD19R,0.078700X0.019600*%
%ADD20R,0.013700X0.039300*%
%ADD21R,0.039300X0.013700*%
%ADD22C,0.006000*%
%ADD23C,0.001000*%
%ADD24C,0.015000*%
%ADD25C,0.007000*%
%ADD26C,0.005000*%
%ADD27C,0.010000*%
%ADD28C,0.024000*%
%ADD29C,0.003900*%
%ADD30C,0.008000*%
%ADD31C,0.003500*%
%ADD32C,0.010700*%
%ADD33C,0.010600*%
%ADD34C,0.004500*%
G04 APERTURE END LIST*
G54D10*
X30408Y42864D02*
X-49592Y42864D01*
X30408Y-37136D02*
X30408Y42864D01*
X-49592Y-37136D02*
X30408Y-37136D01*
X-49592Y-37136D02*
X-49592Y42864D01*
G54D11*
X-08159Y15564D02*
X-08159Y13793D01*
X-08159Y13793D02*
X-06348Y13793D01*
X-06348Y15564D02*
X-06348Y13793D01*
X-08159Y15564D02*
X-06348Y15564D01*
X-08159Y-10065D02*
X-08159Y-11836D01*
X-08159Y-11836D02*
X-06348Y-11836D01*
X-06348Y-10065D02*
X-06348Y-11836D01*
X-08159Y-10065D02*
X-06348Y-10065D01*
G54D12*
X-18778Y28147D03*
X-18778Y27360D03*
X-18778Y26573D03*
X-18778Y25785D03*
X-18778Y24999D03*
X-18778Y24211D03*
X-18778Y23424D03*
X-18778Y22637D03*
X-18778Y21849D03*
X-10118Y21849D03*
X-10118Y22637D03*
X-10118Y23424D03*
X-10118Y24211D03*
X-10118Y24999D03*
X-10118Y25785D03*
X-10118Y26573D03*
X-10118Y27360D03*
X-10118Y28147D03*
X-10118Y28935D03*
X-18778Y28934D03*
G54D13*
X145144Y-99498D03*
G54D14*
X146144Y-99498D03*
G54D13*
X141944Y-89838D03*
G54D14*
X142944Y-89838D03*
G54D13*
X141754Y-87408D03*
G54D14*
X142754Y-87408D03*
G54D13*
X148104Y-71788D03*
G54D14*
X149104Y-71788D03*
X150104Y-71788D03*
G54D13*
X148224Y-69358D03*
G54D14*
X149224Y-69358D03*
X150224Y-69358D03*
G54D13*
X148164Y-66418D03*
G54D14*
X149164Y-66418D03*
X150164Y-66418D03*
G54D13*
X154244Y-74348D03*
G54D14*
X155244Y-74348D03*
X156244Y-74348D03*
G54D13*
X154184Y-71408D03*
G54D14*
X155184Y-71408D03*
X156184Y-71408D03*
G54D13*
X154304Y-68658D03*
G54D14*
X155304Y-68658D03*
X156304Y-68658D03*
G54D13*
X154114Y-66028D03*
G54D14*
X155114Y-66028D03*
X156114Y-66028D03*
G54D13*
X160514Y-75118D03*
G54D14*
X161514Y-75118D03*
X162514Y-75118D03*
G54D13*
X160514Y-72748D03*
G54D14*
X161514Y-72748D03*
X162514Y-72748D03*
G54D13*
X160584Y-70378D03*
G54D14*
X161584Y-70378D03*
X162584Y-70378D03*
G54D13*
X160644Y-68398D03*
G54D14*
X161644Y-68398D03*
X162644Y-68398D03*
G54D13*
X160704Y-65968D03*
G54D14*
X161704Y-65968D03*
X162704Y-65968D03*
G54D13*
X-42592Y-14136D03*
G54D14*
X-41592Y-14136D03*
X-40592Y-14136D03*
G54D13*
X-42592Y-13136D03*
G54D14*
X-41592Y-13136D03*
X-40592Y-13136D03*
G54D13*
X-43592Y-06136D03*
G54D14*
X-42592Y-06136D03*
X-41592Y-06136D03*
G54D13*
X-43592Y-05136D03*
G54D14*
X-42592Y-05136D03*
X-41592Y-05136D03*
G54D13*
X-43592Y-04136D03*
G54D14*
X-42592Y-04136D03*
X-41592Y-04136D03*
G54D13*
X-43592Y-03136D03*
G54D14*
X-42592Y-03136D03*
X-41592Y-03136D03*
G54D13*
X-43592Y-02136D03*
G54D14*
X-42592Y-02136D03*
X-41592Y-02136D03*
G54D13*
X-43592Y-01136D03*
G54D14*
X-42592Y-01136D03*
X-41592Y-01136D03*
G54D13*
X-43592Y-00136D03*
G54D14*
X-42592Y-00136D03*
X-41592Y-00136D03*
G54D13*
X-43592Y00864D03*
G54D14*
X-42592Y00864D03*
X-41592Y00864D03*
G54D13*
X-43592Y01864D03*
G54D14*
X-42592Y01864D03*
X-41592Y01864D03*
G54D13*
X-43592Y02864D03*
G54D14*
X-42592Y02864D03*
X-41592Y02864D03*
G54D13*
X-43592Y03864D03*
G54D14*
X-42592Y03864D03*
X-41592Y03864D03*
G54D13*
X-43592Y04864D03*
G54D14*
X-42592Y04864D03*
X-41592Y04864D03*
G54D13*
X-43592Y05864D03*
G54D14*
X-42592Y05864D03*
X-41592Y05864D03*
G54D13*
X-43592Y06864D03*
G54D14*
X-42592Y06864D03*
X-41592Y06864D03*
G54D13*
X-43592Y07864D03*
G54D14*
X-42592Y07864D03*
X-41592Y07864D03*
G54D13*
X-43592Y08864D03*
G54D14*
X-42592Y08864D03*
X-41592Y08864D03*
G54D13*
X158384Y-77898D03*
G54D14*
X159384Y-77898D03*
X160384Y-77898D03*
X161384Y-77898D03*
G54D13*
X153234Y-87658D03*
G54D14*
X154234Y-87658D03*
X155234Y-87658D03*
X156234Y-87658D03*
G54D13*
X162144Y-83378D03*
G54D14*
X163144Y-83378D03*
X164144Y-83378D03*
X165144Y-83378D03*
G54D13*
X161934Y-85548D03*
G54D14*
X162934Y-85548D03*
X163934Y-85548D03*
X164934Y-85548D03*
G54D13*
X161454Y-90698D03*
G54D14*
X162454Y-90698D03*
X163454Y-90698D03*
X164454Y-90698D03*
G54D13*
X166984Y-79468D03*
G54D14*
X167984Y-79468D03*
X168984Y-79468D03*
X169984Y-79468D03*
X170984Y-79468D03*
G54D13*
X160274Y-88638D03*
G54D14*
X161274Y-88638D03*
X162274Y-88638D03*
X163274Y-88638D03*
X164274Y-88638D03*
X165274Y-88638D03*
X166274Y-88638D03*
G54D13*
X162634Y-92958D03*
G54D14*
X163634Y-92958D03*
G54D15*
X228656Y-178784D03*
X236656Y-178784D03*
X228656Y-178784D03*
X236656Y-178784D03*
X228656Y-178784D03*
X236656Y-178784D03*
X228656Y-178784D03*
X236656Y-178784D03*
X228656Y-178784D03*
X236656Y-178784D03*
X228656Y-178784D03*
X236656Y-178784D03*
X228656Y-178784D03*
X236656Y-178784D03*
X228656Y-178784D03*
X236656Y-178784D03*
X228656Y-178784D03*
X236656Y-178784D03*
X228656Y-178784D03*
X236656Y-178784D03*
X228656Y-178784D03*
X236656Y-178784D03*
X228656Y-178784D03*
X236656Y-178784D03*
X228656Y-178784D03*
X236656Y-178784D03*
X228656Y-178784D03*
X236656Y-178784D03*
X228656Y-178784D03*
X236656Y-178784D03*
X228656Y-178784D03*
X236656Y-178784D03*
X228656Y-178784D03*
X236656Y-178784D03*
X228656Y-178784D03*
X236656Y-178784D03*
X228656Y-178784D03*
X236656Y-178784D03*
X228656Y-178784D03*
X236656Y-178784D03*
X228656Y-178784D03*
X236656Y-178784D03*
X228656Y-178784D03*
X236656Y-178784D03*
X228656Y-178784D03*
X236656Y-178784D03*
X228656Y-178784D03*
X236656Y-178784D03*
X228656Y-178784D03*
X236656Y-178784D03*
X228656Y-178784D03*
X236656Y-178784D03*
X228656Y-178784D03*
X236656Y-178784D03*
X228656Y-178784D03*
X236656Y-178784D03*
X228656Y-178784D03*
X236656Y-178784D03*
X228656Y-178784D03*
X236656Y-178784D03*
X228656Y-178784D03*
X236656Y-178784D03*
X228656Y-178784D03*
X236656Y-178784D03*
X228656Y-178784D03*
X236656Y-178784D03*
X228656Y-178784D03*
X236656Y-178784D03*
X228656Y-178784D03*
X236656Y-178784D03*
X228656Y-178784D03*
X236656Y-178784D03*
X228656Y-178784D03*
X236656Y-178784D03*
X228656Y-178784D03*
X236656Y-178784D03*
X228656Y-178784D03*
X236656Y-178784D03*
X228656Y-178784D03*
X236656Y-178784D03*
X228656Y-178784D03*
X236656Y-178784D03*
X228656Y-178784D03*
X236656Y-178784D03*
X228656Y-178784D03*
X236656Y-178784D03*
X228656Y-178784D03*
X236656Y-178784D03*
X228656Y-178784D03*
X236656Y-178784D03*
X228656Y-178784D03*
X236656Y-178784D03*
X228656Y-178784D03*
X236656Y-178784D03*
X228656Y-178784D03*
X236656Y-178784D03*
X228656Y-178784D03*
X236656Y-178784D03*
X228656Y-178784D03*
X236656Y-178784D03*
X228656Y-178784D03*
X236656Y-178784D03*
X228656Y-178784D03*
X236656Y-178784D03*
X228656Y-178784D03*
X236656Y-178784D03*
X228656Y-178784D03*
X236656Y-178784D03*
G54D16*
X-11374Y-09513D03*
X-11366Y-09198D03*
M02*
