G04 (Genere par PCBnew (20080825c)) le 16/3/2011-02:53:24*
G01*
G70*
G90*
%MOIN*%
G04 Gerber Fmt 3.4, Leading zero omitted, Abs format*
%FSLAX34Y34*%
G04 APERTURE LIST*
%ADD10C,0.015000*%
%ADD11C,0.002600*%
%ADD12C,0.046000*%
%ADD13R,0.055000X0.055000*%
%ADD14C,0.055000*%
%ADD15C,0.100000*%
%ADD16C,0.059100*%
%ADD17C,0.118100*%
%ADD18C,0.143700*%
%ADD19R,0.059100X0.059100*%
%ADD20C,0.025000*%
%ADD21R,0.025000X0.045000*%
%ADD22R,0.035000X0.055000*%
%ADD23R,0.078700X0.019600*%
%ADD24R,0.013700X0.039300*%
%ADD25R,0.039300X0.013700*%
%ADD26R,0.039000X0.012000*%
%ADD27R,0.042000X0.085000*%
%ADD28R,0.425100X0.409800*%
%ADD29R,0.047200X0.013700*%
%ADD30R,0.023600X0.086600*%
%ADD31R,0.012000X0.039000*%
%ADD32R,0.016500X0.046000*%
%ADD33R,0.110000X0.082000*%
%ADD34C,0.006000*%
%ADD35C,0.001000*%
%ADD36C,0.007000*%
%ADD37C,0.005000*%
%ADD38C,0.012000*%
%ADD39C,0.010000*%
%ADD40C,0.024000*%
%ADD41C,0.003900*%
%ADD42C,0.008000*%
%ADD43C,0.002000*%
%ADD44C,0.003000*%
%ADD45C,0.000100*%
%ADD46C,0.003500*%
G04 APERTURE END LIST*
G54D10*
X179000Y-56000D02*
X99000Y-56000D01*
X179000Y-136000D02*
X179000Y-56000D01*
X99000Y-136000D02*
X179000Y-136000D01*
X99000Y-136000D02*
X99000Y-56000D01*
G54D11*
X140433Y-83300D02*
X140433Y-85071D01*
X140433Y-85071D02*
X142244Y-85071D01*
X142244Y-83300D02*
X142244Y-85071D01*
X140433Y-83300D02*
X142244Y-83300D01*
X140433Y-108929D02*
X140433Y-110700D01*
X140433Y-110700D02*
X142244Y-110700D01*
X142244Y-108929D02*
X142244Y-110700D01*
X140433Y-108929D02*
X142244Y-108929D01*
G54D12*
X129814Y-70717D03*
X129814Y-71504D03*
X129814Y-72291D03*
X129814Y-73079D03*
X129814Y-73865D03*
X129814Y-74653D03*
X129814Y-75440D03*
X129814Y-76227D03*
X129814Y-77015D03*
X138474Y-77015D03*
X138474Y-76227D03*
X138474Y-75440D03*
X138474Y-74653D03*
X138474Y-73865D03*
X138474Y-73079D03*
X138474Y-72291D03*
X138474Y-71504D03*
X138474Y-70717D03*
X138474Y-69929D03*
X129814Y-69930D03*
G54D13*
X46280Y-52730D03*
G54D14*
X47280Y-52730D03*
G54D13*
X43080Y-43070D03*
G54D14*
X44080Y-43070D03*
G54D13*
X42890Y-40640D03*
G54D14*
X43890Y-40640D03*
G54D13*
X49240Y-25020D03*
G54D14*
X50240Y-25020D03*
X51240Y-25020D03*
G54D13*
X49360Y-22590D03*
G54D14*
X50360Y-22590D03*
X51360Y-22590D03*
G54D13*
X49300Y-19650D03*
G54D14*
X50300Y-19650D03*
X51300Y-19650D03*
G54D13*
X55380Y-27580D03*
G54D14*
X56380Y-27580D03*
X57380Y-27580D03*
G54D13*
X55320Y-24640D03*
G54D14*
X56320Y-24640D03*
X57320Y-24640D03*
G54D13*
X55440Y-21890D03*
G54D14*
X56440Y-21890D03*
X57440Y-21890D03*
G54D13*
X55250Y-19260D03*
G54D14*
X56250Y-19260D03*
X57250Y-19260D03*
G54D13*
X61650Y-28350D03*
G54D14*
X62650Y-28350D03*
X63650Y-28350D03*
G54D13*
X61650Y-25980D03*
G54D14*
X62650Y-25980D03*
X63650Y-25980D03*
G54D13*
X61720Y-23610D03*
G54D14*
X62720Y-23610D03*
X63720Y-23610D03*
G54D13*
X61780Y-21630D03*
G54D14*
X62780Y-21630D03*
X63780Y-21630D03*
G54D13*
X61840Y-19200D03*
G54D14*
X62840Y-19200D03*
X63840Y-19200D03*
G54D13*
X106000Y-113000D03*
G54D14*
X107000Y-113000D03*
X108000Y-113000D03*
G54D13*
X106000Y-112000D03*
G54D14*
X107000Y-112000D03*
X108000Y-112000D03*
G54D13*
X105000Y-105000D03*
G54D14*
X106000Y-105000D03*
X107000Y-105000D03*
G54D13*
X105000Y-104000D03*
G54D14*
X106000Y-104000D03*
X107000Y-104000D03*
G54D13*
X105000Y-103000D03*
G54D14*
X106000Y-103000D03*
X107000Y-103000D03*
G54D13*
X105000Y-102000D03*
G54D14*
X106000Y-102000D03*
X107000Y-102000D03*
G54D13*
X105000Y-101000D03*
G54D14*
X106000Y-101000D03*
X107000Y-101000D03*
G54D13*
X105000Y-100000D03*
G54D14*
X106000Y-100000D03*
X107000Y-100000D03*
G54D13*
X105000Y-99000D03*
G54D14*
X106000Y-99000D03*
X107000Y-99000D03*
G54D13*
X105000Y-98000D03*
G54D14*
X106000Y-98000D03*
X107000Y-98000D03*
G54D13*
X105000Y-97000D03*
G54D14*
X106000Y-97000D03*
X107000Y-97000D03*
G54D13*
X105000Y-96000D03*
G54D14*
X106000Y-96000D03*
X107000Y-96000D03*
G54D13*
X105000Y-95000D03*
G54D14*
X106000Y-95000D03*
X107000Y-95000D03*
G54D13*
X105000Y-94000D03*
G54D14*
X106000Y-94000D03*
X107000Y-94000D03*
G54D13*
X105000Y-93000D03*
G54D14*
X106000Y-93000D03*
X107000Y-93000D03*
G54D13*
X105000Y-92000D03*
G54D14*
X106000Y-92000D03*
X107000Y-92000D03*
G54D13*
X105000Y-91000D03*
G54D14*
X106000Y-91000D03*
X107000Y-91000D03*
G54D13*
X105000Y-90000D03*
G54D14*
X106000Y-90000D03*
X107000Y-90000D03*
G54D13*
X59520Y-31130D03*
G54D14*
X60520Y-31130D03*
X61520Y-31130D03*
X62520Y-31130D03*
G54D13*
X54370Y-40890D03*
G54D14*
X55370Y-40890D03*
X56370Y-40890D03*
X57370Y-40890D03*
G54D13*
X63280Y-36610D03*
G54D14*
X64280Y-36610D03*
X65280Y-36610D03*
X66280Y-36610D03*
G54D13*
X63070Y-38780D03*
G54D14*
X64070Y-38780D03*
X65070Y-38780D03*
X66070Y-38780D03*
G54D13*
X64000Y-56500D03*
G54D14*
X65000Y-56500D03*
X66000Y-56500D03*
X67000Y-56500D03*
G54D13*
X68120Y-32700D03*
G54D14*
X69120Y-32700D03*
X70120Y-32700D03*
X71120Y-32700D03*
X72120Y-32700D03*
G54D13*
X61410Y-41870D03*
G54D14*
X62410Y-41870D03*
X63410Y-41870D03*
X64410Y-41870D03*
X65410Y-41870D03*
X66410Y-41870D03*
X67410Y-41870D03*
G54D13*
X63770Y-46190D03*
G54D14*
X64770Y-46190D03*
G54D15*
X-76830Y-17300D03*
X-68830Y-17300D03*
X-66320Y-25360D03*
X-58320Y-25360D03*
X-66460Y-17580D03*
X-58460Y-17580D03*
X-66320Y-13840D03*
X-58320Y-13840D03*
X-66320Y-10100D03*
X-58320Y-10100D03*
X-66180Y-06060D03*
X-58180Y-06060D03*
X-66320Y-01890D03*
X-58320Y-01890D03*
X-66030Y02580D03*
X-58030Y02580D03*
X-66030Y06320D03*
X-58030Y06320D03*
X-53070Y-28100D03*
X-45070Y-28100D03*
X-53360Y-20320D03*
X-45360Y-20320D03*
X-53360Y-16720D03*
X-45360Y-16720D03*
X-53360Y-12980D03*
X-45360Y-12980D03*
X-53650Y-09230D03*
X-45650Y-09230D03*
X-53650Y-05060D03*
X-45650Y-05060D03*
X-53790Y-01310D03*
X-45790Y-01310D03*
X-53650Y02430D03*
X-45650Y02430D03*
X-53500Y06180D03*
X-45500Y06180D03*
X-42850Y-29680D03*
X-34850Y-29680D03*
X-42560Y-25790D03*
X-34560Y-25790D03*
X-42420Y-21760D03*
X-34420Y-21760D03*
X-42420Y-13700D03*
X-34420Y-13700D03*
X-42420Y-09660D03*
X-34420Y-09660D03*
X-42270Y-05780D03*
X-34270Y-05780D03*
X-42130Y-01890D03*
X-34130Y-01890D03*
X-42270Y02000D03*
X-34270Y02000D03*
X-42420Y05890D03*
X-34420Y05890D03*
X-31330Y-29540D03*
X-23330Y-29540D03*
X-31470Y-25650D03*
X-23470Y-25650D03*
X-31470Y-21760D03*
X-23470Y-21760D03*
X-31760Y-17870D03*
X-23760Y-17870D03*
X-31860Y-13780D03*
X-23860Y-13780D03*
X-31930Y-10040D03*
X-23930Y-10040D03*
X-32000Y-06150D03*
X-24000Y-06150D03*
X-32360Y-02260D03*
X-24360Y-02260D03*
X-32580Y01770D03*
X-24580Y01770D03*
X-32140Y06380D03*
X-24140Y06380D03*
X-17100Y06520D03*
X-09100Y06520D03*
X-30420Y11420D03*
X-22420Y11420D03*
X-08020Y12860D03*
X-00020Y12860D03*
X05370Y10550D03*
X13370Y10550D03*
X-00180Y-04670D03*
X07820Y-04670D03*
X-13370Y-00940D03*
X-05370Y-00940D03*
X-10060Y-05190D03*
X-02060Y-05190D03*
G54D16*
X110100Y-61000D03*
X111100Y-61000D03*
X111900Y-61000D03*
X112900Y-61000D03*
G54D17*
X108900Y-59950D03*
X114300Y-59950D03*
G54D18*
X116662Y-59000D03*
X121335Y-59000D03*
G54D19*
X120750Y-61500D03*
G54D16*
X120250Y-62500D03*
X119750Y-61500D03*
X119250Y-62500D03*
X118750Y-61500D03*
X118250Y-62500D03*
X117750Y-61500D03*
X117250Y-62500D03*
G54D20*
X137218Y-108377D03*
X137226Y-108062D03*
M02*
