G04 (Genere par PCBnew (20080825c)) le 16/3/2011-02:53:24*
G01*
G70*
G90*
%MOIN*%
G04 Gerber Fmt 3.4, Leading zero omitted, Abs format*
%FSLAX34Y34*%
G04 APERTURE LIST*
%ADD10C,0.015000*%
%ADD11C,0.002600*%
%ADD12C,0.046000*%
%ADD13R,0.055000X0.055000*%
%ADD14C,0.055000*%
%ADD15C,0.100000*%
%ADD16C,0.059100*%
%ADD17C,0.118100*%
%ADD18C,0.143700*%
%ADD19R,0.059100X0.059100*%
%ADD20C,0.025000*%
%ADD21R,0.025000X0.045000*%
%ADD22R,0.035000X0.055000*%
%ADD23R,0.078700X0.019600*%
%ADD24R,0.013700X0.039300*%
%ADD25R,0.039300X0.013700*%
%ADD26R,0.039000X0.012000*%
%ADD27R,0.042000X0.085000*%
%ADD28R,0.425100X0.409800*%
%ADD29R,0.047200X0.013700*%
%ADD30R,0.023600X0.086600*%
%ADD31R,0.012000X0.039000*%
%ADD32R,0.016500X0.046000*%
%ADD33R,0.110000X0.082000*%
%ADD34C,0.006000*%
%ADD35C,0.001000*%
%ADD36C,0.007000*%
%ADD37C,0.005000*%
%ADD38C,0.012000*%
%ADD39C,0.010000*%
%ADD40C,0.024000*%
%ADD41C,0.003900*%
%ADD42C,0.008000*%
%ADD43C,0.002000*%
%ADD44C,0.003000*%
%ADD45C,0.000100*%
%ADD46C,0.003500*%
G04 APERTURE END LIST*
G54D10*
X179000Y-56000D02*
X99000Y-56000D01*
X179000Y-136000D02*
X179000Y-56000D01*
X99000Y-136000D02*
X179000Y-136000D01*
X99000Y-136000D02*
X99000Y-56000D01*
G54D35*
X62685Y-41870D02*
X62678Y-41927D01*
X62678Y-41927D02*
X62661Y-41981D01*
X62661Y-41981D02*
X62632Y-42031D01*
X62632Y-42031D02*
X62594Y-42074D01*
X62594Y-42074D02*
X62547Y-42108D01*
X62547Y-42108D02*
X62494Y-42131D01*
X62494Y-42131D02*
X62438Y-42143D01*
X62438Y-42143D02*
X62382Y-42143D01*
X62382Y-42143D02*
X62326Y-42131D01*
X62326Y-42131D02*
X62273Y-42108D01*
X62273Y-42108D02*
X62226Y-42074D01*
X62226Y-42074D02*
X62188Y-42031D01*
X62188Y-42031D02*
X62159Y-41981D01*
X62159Y-41981D02*
X62142Y-41927D01*
X62142Y-41927D02*
X62135Y-41870D01*
X62135Y-41870D02*
X62142Y-41813D01*
X62142Y-41813D02*
X62159Y-41759D01*
X62159Y-41759D02*
X62188Y-41709D01*
X62188Y-41709D02*
X62226Y-41666D01*
X62226Y-41666D02*
X62273Y-41632D01*
X62273Y-41632D02*
X62326Y-41609D01*
X62326Y-41609D02*
X62382Y-41597D01*
X62382Y-41597D02*
X62438Y-41597D01*
X62438Y-41597D02*
X62494Y-41609D01*
X62494Y-41609D02*
X62547Y-41632D01*
X62547Y-41632D02*
X62594Y-41666D01*
X62594Y-41666D02*
X62632Y-41709D01*
X62632Y-41709D02*
X62661Y-41759D01*
X62661Y-41759D02*
X62678Y-41813D01*
X62678Y-41813D02*
X62685Y-41870D01*
X63685Y-41870D02*
X63678Y-41927D01*
X63678Y-41927D02*
X63661Y-41981D01*
X63661Y-41981D02*
X63632Y-42031D01*
X63632Y-42031D02*
X63594Y-42074D01*
X63594Y-42074D02*
X63547Y-42108D01*
X63547Y-42108D02*
X63494Y-42131D01*
X63494Y-42131D02*
X63438Y-42143D01*
X63438Y-42143D02*
X63382Y-42143D01*
X63382Y-42143D02*
X63326Y-42131D01*
X63326Y-42131D02*
X63273Y-42108D01*
X63273Y-42108D02*
X63226Y-42074D01*
X63226Y-42074D02*
X63188Y-42031D01*
X63188Y-42031D02*
X63159Y-41981D01*
X63159Y-41981D02*
X63142Y-41927D01*
X63142Y-41927D02*
X63135Y-41870D01*
X63135Y-41870D02*
X63142Y-41813D01*
X63142Y-41813D02*
X63159Y-41759D01*
X63159Y-41759D02*
X63188Y-41709D01*
X63188Y-41709D02*
X63226Y-41666D01*
X63226Y-41666D02*
X63273Y-41632D01*
X63273Y-41632D02*
X63326Y-41609D01*
X63326Y-41609D02*
X63382Y-41597D01*
X63382Y-41597D02*
X63438Y-41597D01*
X63438Y-41597D02*
X63494Y-41609D01*
X63494Y-41609D02*
X63547Y-41632D01*
X63547Y-41632D02*
X63594Y-41666D01*
X63594Y-41666D02*
X63632Y-41709D01*
X63632Y-41709D02*
X63661Y-41759D01*
X63661Y-41759D02*
X63678Y-41813D01*
X63678Y-41813D02*
X63685Y-41870D01*
X64685Y-41870D02*
X64678Y-41927D01*
X64678Y-41927D02*
X64661Y-41981D01*
X64661Y-41981D02*
X64632Y-42031D01*
X64632Y-42031D02*
X64594Y-42074D01*
X64594Y-42074D02*
X64547Y-42108D01*
X64547Y-42108D02*
X64494Y-42131D01*
X64494Y-42131D02*
X64438Y-42143D01*
X64438Y-42143D02*
X64382Y-42143D01*
X64382Y-42143D02*
X64326Y-42131D01*
X64326Y-42131D02*
X64273Y-42108D01*
X64273Y-42108D02*
X64226Y-42074D01*
X64226Y-42074D02*
X64188Y-42031D01*
X64188Y-42031D02*
X64159Y-41981D01*
X64159Y-41981D02*
X64142Y-41927D01*
X64142Y-41927D02*
X64135Y-41870D01*
X64135Y-41870D02*
X64142Y-41813D01*
X64142Y-41813D02*
X64159Y-41759D01*
X64159Y-41759D02*
X64188Y-41709D01*
X64188Y-41709D02*
X64226Y-41666D01*
X64226Y-41666D02*
X64273Y-41632D01*
X64273Y-41632D02*
X64326Y-41609D01*
X64326Y-41609D02*
X64382Y-41597D01*
X64382Y-41597D02*
X64438Y-41597D01*
X64438Y-41597D02*
X64494Y-41609D01*
X64494Y-41609D02*
X64547Y-41632D01*
X64547Y-41632D02*
X64594Y-41666D01*
X64594Y-41666D02*
X64632Y-41709D01*
X64632Y-41709D02*
X64661Y-41759D01*
X64661Y-41759D02*
X64678Y-41813D01*
X64678Y-41813D02*
X64685Y-41870D01*
X65685Y-41870D02*
X65678Y-41927D01*
X65678Y-41927D02*
X65661Y-41981D01*
X65661Y-41981D02*
X65632Y-42031D01*
X65632Y-42031D02*
X65594Y-42074D01*
X65594Y-42074D02*
X65547Y-42108D01*
X65547Y-42108D02*
X65494Y-42131D01*
X65494Y-42131D02*
X65438Y-42143D01*
X65438Y-42143D02*
X65382Y-42143D01*
X65382Y-42143D02*
X65326Y-42131D01*
X65326Y-42131D02*
X65273Y-42108D01*
X65273Y-42108D02*
X65226Y-42074D01*
X65226Y-42074D02*
X65188Y-42031D01*
X65188Y-42031D02*
X65159Y-41981D01*
X65159Y-41981D02*
X65142Y-41927D01*
X65142Y-41927D02*
X65135Y-41870D01*
X65135Y-41870D02*
X65142Y-41813D01*
X65142Y-41813D02*
X65159Y-41759D01*
X65159Y-41759D02*
X65188Y-41709D01*
X65188Y-41709D02*
X65226Y-41666D01*
X65226Y-41666D02*
X65273Y-41632D01*
X65273Y-41632D02*
X65326Y-41609D01*
X65326Y-41609D02*
X65382Y-41597D01*
X65382Y-41597D02*
X65438Y-41597D01*
X65438Y-41597D02*
X65494Y-41609D01*
X65494Y-41609D02*
X65547Y-41632D01*
X65547Y-41632D02*
X65594Y-41666D01*
X65594Y-41666D02*
X65632Y-41709D01*
X65632Y-41709D02*
X65661Y-41759D01*
X65661Y-41759D02*
X65678Y-41813D01*
X65678Y-41813D02*
X65685Y-41870D01*
X66685Y-41870D02*
X66678Y-41927D01*
X66678Y-41927D02*
X66661Y-41981D01*
X66661Y-41981D02*
X66632Y-42031D01*
X66632Y-42031D02*
X66594Y-42074D01*
X66594Y-42074D02*
X66547Y-42108D01*
X66547Y-42108D02*
X66494Y-42131D01*
X66494Y-42131D02*
X66438Y-42143D01*
X66438Y-42143D02*
X66382Y-42143D01*
X66382Y-42143D02*
X66326Y-42131D01*
X66326Y-42131D02*
X66273Y-42108D01*
X66273Y-42108D02*
X66226Y-42074D01*
X66226Y-42074D02*
X66188Y-42031D01*
X66188Y-42031D02*
X66159Y-41981D01*
X66159Y-41981D02*
X66142Y-41927D01*
X66142Y-41927D02*
X66135Y-41870D01*
X66135Y-41870D02*
X66142Y-41813D01*
X66142Y-41813D02*
X66159Y-41759D01*
X66159Y-41759D02*
X66188Y-41709D01*
X66188Y-41709D02*
X66226Y-41666D01*
X66226Y-41666D02*
X66273Y-41632D01*
X66273Y-41632D02*
X66326Y-41609D01*
X66326Y-41609D02*
X66382Y-41597D01*
X66382Y-41597D02*
X66438Y-41597D01*
X66438Y-41597D02*
X66494Y-41609D01*
X66494Y-41609D02*
X66547Y-41632D01*
X66547Y-41632D02*
X66594Y-41666D01*
X66594Y-41666D02*
X66632Y-41709D01*
X66632Y-41709D02*
X66661Y-41759D01*
X66661Y-41759D02*
X66678Y-41813D01*
X66678Y-41813D02*
X66685Y-41870D01*
X67685Y-41870D02*
X67678Y-41927D01*
X67678Y-41927D02*
X67661Y-41981D01*
X67661Y-41981D02*
X67632Y-42031D01*
X67632Y-42031D02*
X67594Y-42074D01*
X67594Y-42074D02*
X67547Y-42108D01*
X67547Y-42108D02*
X67494Y-42131D01*
X67494Y-42131D02*
X67438Y-42143D01*
X67438Y-42143D02*
X67382Y-42143D01*
X67382Y-42143D02*
X67326Y-42131D01*
X67326Y-42131D02*
X67273Y-42108D01*
X67273Y-42108D02*
X67226Y-42074D01*
X67226Y-42074D02*
X67188Y-42031D01*
X67188Y-42031D02*
X67159Y-41981D01*
X67159Y-41981D02*
X67142Y-41927D01*
X67142Y-41927D02*
X67135Y-41870D01*
X67135Y-41870D02*
X67142Y-41813D01*
X67142Y-41813D02*
X67159Y-41759D01*
X67159Y-41759D02*
X67188Y-41709D01*
X67188Y-41709D02*
X67226Y-41666D01*
X67226Y-41666D02*
X67273Y-41632D01*
X67273Y-41632D02*
X67326Y-41609D01*
X67326Y-41609D02*
X67382Y-41597D01*
X67382Y-41597D02*
X67438Y-41597D01*
X67438Y-41597D02*
X67494Y-41609D01*
X67494Y-41609D02*
X67547Y-41632D01*
X67547Y-41632D02*
X67594Y-41666D01*
X67594Y-41666D02*
X67632Y-41709D01*
X67632Y-41709D02*
X67661Y-41759D01*
X67661Y-41759D02*
X67678Y-41813D01*
X67678Y-41813D02*
X67685Y-41870D01*
X117380Y-59000D02*
X117364Y-59149D01*
X117364Y-59149D02*
X117317Y-59292D01*
X117317Y-59292D02*
X117242Y-59422D01*
X117242Y-59422D02*
X117142Y-59533D01*
X117142Y-59533D02*
X117021Y-59621D01*
X117021Y-59621D02*
X116883Y-59682D01*
X116883Y-59682D02*
X116737Y-59714D01*
X116737Y-59714D02*
X116587Y-59714D01*
X116587Y-59714D02*
X116441Y-59682D01*
X116441Y-59682D02*
X116303Y-59621D01*
X116303Y-59621D02*
X116182Y-59533D01*
X116182Y-59533D02*
X116082Y-59422D01*
X116082Y-59422D02*
X116007Y-59292D01*
X116007Y-59292D02*
X115960Y-59149D01*
X115960Y-59149D02*
X115944Y-59000D01*
X115944Y-59000D02*
X115960Y-58851D01*
X115960Y-58851D02*
X116007Y-58708D01*
X116007Y-58708D02*
X116082Y-58578D01*
X116082Y-58578D02*
X116182Y-58467D01*
X116182Y-58467D02*
X116303Y-58379D01*
X116303Y-58379D02*
X116441Y-58318D01*
X116441Y-58318D02*
X116587Y-58286D01*
X116587Y-58286D02*
X116737Y-58286D01*
X116737Y-58286D02*
X116883Y-58318D01*
X116883Y-58318D02*
X117021Y-58379D01*
X117021Y-58379D02*
X117142Y-58467D01*
X117142Y-58467D02*
X117242Y-58578D01*
X117242Y-58578D02*
X117317Y-58708D01*
X117317Y-58708D02*
X117364Y-58851D01*
X117364Y-58851D02*
X117380Y-59000D01*
X122053Y-59000D02*
X122037Y-59149D01*
X122037Y-59149D02*
X121990Y-59292D01*
X121990Y-59292D02*
X121915Y-59422D01*
X121915Y-59422D02*
X121815Y-59533D01*
X121815Y-59533D02*
X121694Y-59621D01*
X121694Y-59621D02*
X121556Y-59682D01*
X121556Y-59682D02*
X121410Y-59714D01*
X121410Y-59714D02*
X121260Y-59714D01*
X121260Y-59714D02*
X121114Y-59682D01*
X121114Y-59682D02*
X120976Y-59621D01*
X120976Y-59621D02*
X120855Y-59533D01*
X120855Y-59533D02*
X120755Y-59422D01*
X120755Y-59422D02*
X120680Y-59292D01*
X120680Y-59292D02*
X120633Y-59149D01*
X120633Y-59149D02*
X120617Y-59000D01*
X120617Y-59000D02*
X120633Y-58851D01*
X120633Y-58851D02*
X120680Y-58708D01*
X120680Y-58708D02*
X120755Y-58578D01*
X120755Y-58578D02*
X120855Y-58467D01*
X120855Y-58467D02*
X120976Y-58379D01*
X120976Y-58379D02*
X121114Y-58318D01*
X121114Y-58318D02*
X121260Y-58286D01*
X121260Y-58286D02*
X121410Y-58286D01*
X121410Y-58286D02*
X121556Y-58318D01*
X121556Y-58318D02*
X121694Y-58379D01*
X121694Y-58379D02*
X121815Y-58467D01*
X121815Y-58467D02*
X121915Y-58578D01*
X121915Y-58578D02*
X121990Y-58708D01*
X121990Y-58708D02*
X122037Y-58851D01*
X122037Y-58851D02*
X122053Y-59000D01*
M02*
